<mxfile host="Electron" modified="2023-12-03T15:51:54.325Z" agent="Mozilla/5.0 (Windows NT 10.0; Win64; x64) AppleWebKit/537.36 (KHTML, like Gecko) draw.io/22.1.2 Chrome/114.0.5735.289 Electron/25.9.4 Safari/537.36" etag="94vZoNb6ZtZ0EOmGhLiA" version="22.1.2" type="device">
  <diagram name="Page-1" id="74e2e168-ea6b-b213-b513-2b3c1d86103e">
    <mxGraphModel dx="649" dy="628" grid="1" gridSize="10" guides="0" tooltips="1" connect="1" arrows="0" fold="1" page="1" pageScale="1" pageWidth="827" pageHeight="1169" background="none" math="0" shadow="0">
      <root>
        <mxCell id="0" />
        <mxCell id="1" parent="0" />
        <mxCell id="GEsONsv_8qL6iSuzSnir-2" value="" style="endArrow=none;html=1;rounded=0;entryX=0.5;entryY=1;entryDx=0;entryDy=0;entryPerimeter=0;exitX=0.5;exitY=0;exitDx=0;exitDy=0;" parent="1" edge="1" source="Ph3yZTdSV_U6AN832jWi-1">
          <mxGeometry width="50" height="50" relative="1" as="geometry">
            <mxPoint x="420" y="130" as="sourcePoint" />
            <mxPoint x="420" y="110" as="targetPoint" />
          </mxGeometry>
        </mxCell>
        <mxCell id="GEsONsv_8qL6iSuzSnir-52" value="&lt;b&gt;double Kop()&lt;br&gt;&lt;/b&gt;" style="rounded=1;whiteSpace=wrap;html=1;arcSize=50;" parent="1" vertex="1">
          <mxGeometry x="380" y="70" width="80" height="40" as="geometry" />
        </mxCell>
        <mxCell id="GEsONsv_8qL6iSuzSnir-53" value="&lt;b&gt;Конец&lt;/b&gt;" style="rounded=1;whiteSpace=wrap;html=1;arcSize=50;" parent="1" vertex="1">
          <mxGeometry x="380" y="530" width="80" height="40" as="geometry" />
        </mxCell>
        <mxCell id="GEsONsv_8qL6iSuzSnir-54" value="" style="group" parent="1" vertex="1" connectable="0">
          <mxGeometry x="460" y="60" width="220" height="60" as="geometry" />
        </mxCell>
        <mxCell id="cmF1lUIxUgk8CuS8iypQ-2" value="" style="strokeWidth=2;html=1;shape=mxgraph.flowchart.annotation_2;align=left;labelPosition=right;pointerEvents=1;fontFamily=Helvetica;" parent="GEsONsv_8qL6iSuzSnir-54" vertex="1">
          <mxGeometry width="50" height="60" as="geometry" />
        </mxCell>
        <mxCell id="cmF1lUIxUgk8CuS8iypQ-3" value="&lt;div style=&quot;&quot;&gt;&lt;font size=&quot;1&quot;&gt;Функция &lt;b&gt;Kop()&lt;/b&gt;&lt;/font&gt;&lt;/div&gt;&lt;div style=&quot;&quot;&gt;&lt;font size=&quot;1&quot;&gt;Входные параметры:&lt;/font&gt;&lt;span style=&quot;font-size: x-small; background-color: initial;&quot;&gt;&amp;nbsp;&lt;/span&gt;&lt;b style=&quot;font-size: x-small; background-color: initial;&quot;&gt;x0, E, nMax&lt;/b&gt;&lt;/div&gt;&lt;div style=&quot;&quot;&gt;&lt;font size=&quot;1&quot;&gt;Выходные параметры: &lt;b&gt;y, i&lt;/b&gt;&lt;/font&gt;&lt;/div&gt;&lt;div style=&quot;&quot;&gt;&lt;font size=&quot;1&quot;&gt;Возвращаемое значение: &lt;b&gt;x&lt;/b&gt;&lt;/font&gt;&lt;/div&gt;" style="text;html=1;strokeColor=none;fillColor=none;align=left;verticalAlign=middle;whiteSpace=wrap;rounded=0;fontFamily=Helvetica;" parent="GEsONsv_8qL6iSuzSnir-54" vertex="1">
          <mxGeometry x="30" width="190" height="60" as="geometry" />
        </mxCell>
        <mxCell id="Ph3yZTdSV_U6AN832jWi-1" value="i = 0&lt;br&gt;x = x0" style="rounded=0;whiteSpace=wrap;html=1;" vertex="1" parent="1">
          <mxGeometry x="360" y="130" width="120" height="60" as="geometry" />
        </mxCell>
        <mxCell id="Ph3yZTdSV_U6AN832jWi-2" value="a = x&lt;br&gt;x = a-Funy(a)/&lt;br&gt;FProiz(a)" style="rounded=0;whiteSpace=wrap;html=1;" vertex="1" parent="1">
          <mxGeometry x="360" y="210" width="120" height="60" as="geometry" />
        </mxCell>
        <mxCell id="Ph3yZTdSV_U6AN832jWi-3" value="Вывод&lt;br&gt;i, x" style="shape=parallelogram;perimeter=parallelogramPerimeter;whiteSpace=wrap;html=1;fixedSize=1;" vertex="1" parent="1">
          <mxGeometry x="360" y="290" width="120" height="60" as="geometry" />
        </mxCell>
        <mxCell id="Ph3yZTdSV_U6AN832jWi-4" value="|x-a| &amp;gt; E&lt;br&gt;&amp;amp;&amp;amp;&lt;br&gt;i&amp;lt;nMax" style="rhombus;whiteSpace=wrap;html=1;" vertex="1" parent="1">
          <mxGeometry x="360" y="370" width="120" height="60" as="geometry" />
        </mxCell>
        <mxCell id="Ph3yZTdSV_U6AN832jWi-5" value="" style="endArrow=none;html=1;rounded=0;entryX=0.5;entryY=1;entryDx=0;entryDy=0;exitX=0.5;exitY=0;exitDx=0;exitDy=0;" edge="1" parent="1" source="Ph3yZTdSV_U6AN832jWi-2" target="Ph3yZTdSV_U6AN832jWi-1">
          <mxGeometry width="50" height="50" relative="1" as="geometry">
            <mxPoint x="250" y="280" as="sourcePoint" />
            <mxPoint x="300" y="230" as="targetPoint" />
          </mxGeometry>
        </mxCell>
        <mxCell id="Ph3yZTdSV_U6AN832jWi-6" value="" style="endArrow=none;html=1;rounded=0;entryX=0.5;entryY=1;entryDx=0;entryDy=0;exitX=0.5;exitY=0;exitDx=0;exitDy=0;" edge="1" parent="1" source="Ph3yZTdSV_U6AN832jWi-3" target="Ph3yZTdSV_U6AN832jWi-2">
          <mxGeometry width="50" height="50" relative="1" as="geometry">
            <mxPoint x="280" y="320" as="sourcePoint" />
            <mxPoint x="330" y="270" as="targetPoint" />
          </mxGeometry>
        </mxCell>
        <mxCell id="Ph3yZTdSV_U6AN832jWi-7" value="" style="endArrow=none;html=1;rounded=0;entryX=0.5;entryY=1;entryDx=0;entryDy=0;" edge="1" parent="1" source="Ph3yZTdSV_U6AN832jWi-4" target="Ph3yZTdSV_U6AN832jWi-3">
          <mxGeometry width="50" height="50" relative="1" as="geometry">
            <mxPoint x="270" y="370" as="sourcePoint" />
            <mxPoint x="320" y="320" as="targetPoint" />
          </mxGeometry>
        </mxCell>
        <mxCell id="Ph3yZTdSV_U6AN832jWi-8" value="" style="endArrow=classic;html=1;rounded=0;exitX=0;exitY=0.5;exitDx=0;exitDy=0;" edge="1" parent="1" source="Ph3yZTdSV_U6AN832jWi-4">
          <mxGeometry width="50" height="50" relative="1" as="geometry">
            <mxPoint x="310" y="390" as="sourcePoint" />
            <mxPoint x="420" y="200" as="targetPoint" />
            <Array as="points">
              <mxPoint x="340" y="400" />
              <mxPoint x="340" y="200" />
            </Array>
          </mxGeometry>
        </mxCell>
        <mxCell id="Ph3yZTdSV_U6AN832jWi-9" value="y = Funy(x)" style="rounded=0;whiteSpace=wrap;html=1;" vertex="1" parent="1">
          <mxGeometry x="360" y="450" width="120" height="60" as="geometry" />
        </mxCell>
        <mxCell id="Ph3yZTdSV_U6AN832jWi-10" value="" style="endArrow=none;html=1;rounded=0;entryX=0.5;entryY=1;entryDx=0;entryDy=0;exitX=0.5;exitY=0;exitDx=0;exitDy=0;" edge="1" parent="1" source="Ph3yZTdSV_U6AN832jWi-9" target="Ph3yZTdSV_U6AN832jWi-4">
          <mxGeometry width="50" height="50" relative="1" as="geometry">
            <mxPoint x="250" y="470" as="sourcePoint" />
            <mxPoint x="300" y="420" as="targetPoint" />
          </mxGeometry>
        </mxCell>
        <mxCell id="Ph3yZTdSV_U6AN832jWi-11" value="" style="endArrow=none;html=1;rounded=0;entryX=0.5;entryY=1;entryDx=0;entryDy=0;exitX=0.5;exitY=0;exitDx=0;exitDy=0;" edge="1" parent="1" source="GEsONsv_8qL6iSuzSnir-53" target="Ph3yZTdSV_U6AN832jWi-9">
          <mxGeometry width="50" height="50" relative="1" as="geometry">
            <mxPoint x="200" y="480" as="sourcePoint" />
            <mxPoint x="250" y="430" as="targetPoint" />
          </mxGeometry>
        </mxCell>
      </root>
    </mxGraphModel>
  </diagram>
</mxfile>
